Coordinates
version=1
nRows=20
nColumns=38
inDegrees=no

Units are S.I. units (second, meters, Newtons, ...)
If the header above contains a line with 'inDegrees', this indicates whether rotational values are in degrees (yes) or radians (no).

endheader
time	pelvis_tilt	pelvis_list	pelvis_rotation	pelvis_tx	pelvis_ty	pelvis_tz	hip_flexion_r	hip_adduction_r	hip_rotation_r	knee_angle_r	ankle_angle_r	subtalar_angle_r	mtp_angle_r	hip_flexion_l	hip_adduction_l	hip_rotation_l	knee_angle_l	ankle_angle_l	subtalar_angle_l	mtp_angle_l	lumbar_extension	lumbar_bending	lumbar_rotation	arm_flex_r	arm_add_r	arm_rot_r	elbow_flex_r	pro_sup_r	wrist_flex_r	wrist_dev_r	arm_flex_l	arm_add_l	arm_rot_l	elbow_flex_l	pro_sup_l	wrist_flex_l	wrist_dev_l
21.48	-0.261929	1.24113	-1.22595	0.727052	-0.463459	0.963359	-0.287946	0.0855912	-0.0440544	0.0792592	-0.52218	0	0	-0.313339	-0.222539	-0.0680445	0.685098	-0.354054	0	0	-1.06429	0.263859	0.218195	-0.565593	-0.295647	-0.267011	1.71806	1.5708	0	0	-0.131448	-0.200509	-0.0241095	1.17638	1.5708	0	0
21.49	-0.25022	1.2394	-1.23919	0.72634	-0.464014	0.964002	-0.292809	0.0825432	-0.0460223	0.076959	-0.523126	0	0	-0.304394	-0.218972	-0.0744369	0.681947	-0.352097	0	0	-1.06797	0.259877	0.222234	-0.570028	-0.291674	-0.26999	1.71866	1.5708	0	0	-0.126274	-0.203585	-0.016652	1.17155	1.5708	0	0
21.5	-0.23892	1.23746	-1.25186	0.72569	-0.464543	0.964635	-0.298408	0.0794723	-0.047345	0.0736911	-0.52488	0	0	-0.296309	-0.215905	-0.0818724	0.675773	-0.349422	0	0	-1.07177	0.256202	0.226847	-0.574899	-0.287384	-0.273533	1.71941	1.5708	0	0	-0.120756	-0.206563	-0.00869233	1.16711	1.5708	0	0
21.51	-0.228518	1.23574	-1.26322	0.725143	-0.465042	0.965236	-0.304259	0.0764702	-0.0482579	0.0697041	-0.526731	0	0	-0.28838	-0.212932	-0.0888455	0.667359	-0.346278	0	0	-1.07538	0.25304	0.231315	-0.57967	-0.28354	-0.276786	1.72005	1.5708	0	0	-0.115466	-0.209102	-0.00132171	1.16355	1.5708	0	0
21.52	-0.218881	1.23446	-1.27352	0.724642	-0.465475	0.96576	-0.309338	0.073788	-0.0485688	0.0653943	-0.529223	0	0	-0.279746	-0.209809	-0.0954416	0.660054	-0.340981	0	0	-1.0784	0.250121	0.235506	-0.584009	-0.280028	-0.279808	1.7204	1.5708	0	0	-0.110416	-0.211704	0.00573149	1.16099	1.5708	0	0
21.53	-0.210571	1.23355	-1.28225	0.724159	-0.465864	0.966211	-0.313724	0.0715655	-0.0483766	0.0610388	-0.53263	0	0	-0.271644	-0.206824	-0.103325	0.643566	-0.338399	0	0	-1.08074	0.247724	0.239984	-0.588452	-0.275837	-0.283679	1.72089	1.5708	0	0	-0.104901	-0.214679	0.0137418	1.15814	1.5708	0	0
21.54	-0.203052	1.2331	-1.28967	0.723729	-0.466194	0.966595	-0.317408	0.0695532	-0.0482952	0.0568088	-0.535633	0	0	-0.262862	-0.203481	-0.110515	0.627852	-0.33633	0	0	-1.08249	0.245779	0.243303	-0.591992	-0.271948	-0.287062	1.72117	1.5708	0	0	-0.100069	-0.217435	0.0207152	1.15541	1.5708	0	0
21.55	-0.196849	1.23326	-1.29539	0.723384	-0.466504	0.9669	-0.320327	0.0678276	-0.0482368	0.0525971	-0.537585	0	0	-0.25323	-0.200343	-0.117284	0.611098	-0.335403	0	0	-1.08384	0.244241	0.244685	-0.593998	-0.269502	-0.288686	1.72083	1.5708	0	0	-0.0971605	-0.219393	0.0247846	1.15369	1.5708	0	0
21.56	-0.19071	1.23354	-1.30111	0.723115	-0.466804	0.967204	-0.323195	0.0658526	-0.0478019	0.0480675	-0.540211	0	0	-0.244895	-0.19702	-0.124297	0.590745	-0.335752	0	0	-1.0852	0.242711	0.245961	-0.59606	-0.267666	-0.290149	1.72038	1.5708	0	0	-0.0942584	-0.221195	0.0292064	1.15147	1.5708	0	0
21.57	-0.185914	1.23641	-1.30487	0.722866	-0.467381	0.967372	-0.323435	0.0638976	-0.0486116	0.0438697	-0.541839	0	0	-0.234175	-0.193609	-0.129735	0.570519	-0.335749	0	0	-1.07905	0.243528	0.24329	-0.593643	-0.267423	-0.287761	1.71514	1.5708	0	0	-0.0896554	-0.221789	0.0331289	1.1399	1.5708	0	0
21.58	-0.181485	1.23893	-1.30834	0.722745	-0.467737	0.96752	-0.323477	0.0619117	-0.0488238	0.0399739	-0.544302	0	0	-0.224728	-0.189625	-0.133039	0.547545	-0.33597	0	0	-1.07678	0.242454	0.243664	-0.594485	-0.266413	-0.288209	1.71197	1.5708	0	0	-0.0862363	-0.223008	0.0385094	1.1353	1.5708	0	0
21.59	-0.177192	1.24039	-1.31147	0.722692	-0.467985	0.967676	-0.324361	0.0602846	-0.0492524	0.0365653	-0.546574	0	0	-0.215763	-0.185493	-0.133883	0.525143	-0.337662	0	0	-1.07637	0.241879	0.244399	-0.596194	-0.264635	-0.289877	1.711	1.5708	0	0	-0.0839327	-0.224069	0.0427132	1.13351	1.5708	0	0
21.6	-0.17279	1.24186	-1.315	0.722676	-0.468154	0.967836	-0.324965	0.0584216	-0.0488344	0.033476	-0.549231	0	0	-0.208891	-0.179019	-0.12786	0.494943	-0.345706	0	0	-1.07633	0.241101	0.245638	-0.59824	-0.262558	-0.29221	1.71067	1.5708	0	0	-0.081237	-0.224999	0.0469912	1.13173	1.5708	0	0
21.61	-0.171391	1.24276	-1.31595	0.722758	-0.468322	0.967887	-0.325635	0.0574985	-0.0477974	0.0310679	-0.550325	0	0	-0.198716	-0.17596	-0.127601	0.478425	-0.349592	0	0	-1.07703	0.240772	0.246741	-0.59998	-0.261702	-0.293653	1.71095	1.5708	0	0	-0.0802809	-0.225352	0.0487408	1.13174	1.5708	0	0
21.62	-0.169345	1.2441	-1.31728	0.722945	-0.468606	0.967897	-0.326023	0.0563087	-0.0468502	0.028625	-0.551477	0	0	-0.191241	-0.172112	-0.12659	0.458677	-0.352228	0	0	-1.07686	0.240538	0.246826	-0.601233	-0.260906	-0.294664	1.71035	1.5708	0	0	-0.0796417	-0.225469	0.0499937	1.13085	1.5708	0	0
21.63	-0.162422	1.24458	-1.32305	0.723269	-0.468987	0.96807	-0.328143	0.0536666	-0.0470072	0.0255612	-0.554065	0	0	-0.191275	-0.166765	-0.128993	0.424683	-0.360365	0	0	-1.07702	0.239765	0.245398	-0.602118	-0.260322	-0.295056	1.709	1.5708	0	0	-0.0787954	-0.225717	0.0516749	1.12885	1.5708	0	0
21.64	-0.154282	1.24481	-1.32934	0.723555	-0.46933	0.968314	-0.330172	0.0510385	-0.0482702	0.0236046	-0.556043	0	0	-0.191568	-0.160679	-0.123323	0.391866	-0.370233	0	0	-1.07752	0.239035	0.242833	-0.602267	-0.259881	-0.294473	1.70736	1.5708	0	0	-0.0784109	-0.226384	0.0527385	1.12757	1.5708	0	0
21.65	-0.150088	1.24534	-1.33207	0.723812	-0.469644	0.968432	-0.330914	0.0496881	-0.0482288	0.0229018	-0.556671	0	0	-0.186765	-0.156137	-0.116408	0.373709	-0.376633	0	0	-1.07775	0.238817	0.240942	-0.602374	-0.259638	-0.293924	1.70612	1.5708	0	0	-0.0788031	-0.226915	0.053135	1.12727	1.5708	0	0
21.66	-0.149109	1.24627	-1.33193	0.723803	-0.469781	0.968526	-0.33009	0.0498322	-0.0459027	0.0234467	-0.556005	0	0	-0.170803	-0.152742	-0.100695	0.376783	-0.38068	0	0	-1.07779	0.238489	0.239741	-0.601746	-0.258879	-0.293467	1.70488	1.5708	0	0	-0.0791656	-0.227914	0.0532439	1.12787	1.5708	0	0
21.67	-0.151118	1.24751	-1.32947	0.724091	-0.470189	0.968441	-0.32867	0.0501741	-0.04459	0.0245021	-0.555115	0	0	-0.164189	-0.151257	-0.0974895	0.36811	-0.382825	0	0	-1.07639	0.238899	0.238633	-0.601395	-0.258796	-0.293512	1.70353	1.5708	0	0	-0.0805091	-0.228105	0.053074	1.1279	1.5708	0	0
